<svg width="32" height="32" viewBox="0 0 32 32" fill="none" xmlns="http://www.w3.org/2000/svg">
<path d="M12.2178 10.4009C12.2178 6.8667 8.90209 4.60481 8.76072 4.51485C8.5482 4.3712 8.29755 4.29444 8.04103 4.29444C7.78451 4.29444 7.53386 4.3712 7.32134 4.51485C7.17997 4.61767 3.86426 6.8667 3.86426 10.4009C3.86426 11.5086 4.30431 12.571 5.08761 13.3543C5.8709 14.1376 6.93328 14.5777 8.04103 14.5777C9.14878 14.5777 10.2112 14.1376 10.9945 13.3543C11.7778 12.571 12.2178 11.5086 12.2178 10.4009ZM8.04103 12.0073C7.61497 12.0073 7.20637 11.8381 6.9051 11.5368C6.60383 11.2356 6.43458 10.8269 6.43458 10.4009C6.54034 9.1824 7.11655 8.05302 8.04103 7.25225C8.97102 8.04869 9.54847 9.18048 9.64748 10.4009C9.64748 10.8269 9.47823 11.2356 9.17696 11.5368C8.8757 11.8381 8.46709 12.0073 8.04103 12.0073ZM15.8291 13.511C15.6166 13.3673 15.3659 13.2906 15.1094 13.2906C14.8529 13.2906 14.6023 13.3673 14.3897 13.511C14.1712 13.6652 9.0049 17.2379 9.0049 22.6099C9.0049 24.2289 9.64806 25.7816 10.7929 26.9265C11.9377 28.0713 13.4904 28.7144 15.1094 28.7144C16.7284 28.7144 18.2811 28.0713 19.426 26.9265C20.5708 25.7816 21.2139 24.2289 21.2139 22.6099C21.2139 17.148 16.0733 13.6523 15.8291 13.511ZM15.1094 26.1441C14.6453 26.1441 14.1857 26.0527 13.7569 25.8751C13.3282 25.6975 12.9385 25.4372 12.6104 25.109C12.2822 24.7808 12.0219 24.3912 11.8442 23.9624C11.6666 23.5336 11.5752 23.074 11.5752 22.6099C11.5752 19.6412 13.9014 17.2508 15.1223 16.1841C16.3303 17.1994 18.6436 19.5641 18.6436 22.6099C18.6436 23.074 18.5522 23.5336 18.3746 23.9624C18.197 24.3912 17.9367 24.7808 17.6085 25.109C17.2803 25.4372 16.8907 25.6975 16.4619 25.8751C16.0331 26.0527 15.5735 26.1441 15.1094 26.1441ZM23.8614 3.22969C23.6488 3.08604 23.3982 3.00928 23.1417 3.00928C22.8852 3.00928 22.6345 3.08604 22.422 3.22969C22.2421 3.35821 18.001 6.28838 18.001 10.7222C18.001 12.0856 18.5426 13.3931 19.5067 14.3572C20.4707 15.3212 21.7783 15.8628 23.1417 15.8628C24.5051 15.8628 25.8126 15.3212 26.7767 14.3572C27.7407 13.3931 28.2823 12.0856 28.2823 10.7222C28.2823 6.23697 24.0413 3.34536 23.8614 3.22969ZM23.1417 13.2925C22.46 13.2925 21.8062 13.0217 21.3242 12.5397C20.8422 12.0576 20.5714 11.4039 20.5714 10.7222C20.6594 9.79419 20.9322 8.89318 21.3736 8.07216C21.815 7.25113 22.4162 6.52667 23.1417 5.94138C23.8699 6.52417 24.4729 7.24803 24.9146 8.06954C25.3563 8.89105 25.6275 9.7933 25.712 10.7222C25.712 11.4039 25.4412 12.0576 24.9592 12.5397C24.4771 13.0217 23.8234 13.2925 23.1417 13.2925Z" fill="black"/>
</svg>
