<svg width="26" height="26" viewBox="0 0 26 26" fill="none" xmlns="http://www.w3.org/2000/svg">
<path d="M9.2178 7.40138C9.2178 3.86719 5.90209 1.6053 5.76072 1.51534C5.5482 1.37169 5.29755 1.29493 5.04103 1.29493C4.78451 1.29493 4.53386 1.37169 4.32134 1.51534C4.17997 1.61815 0.864258 3.86719 0.864258 7.40138C0.864258 8.50913 1.30431 9.57151 2.08761 10.3548C2.8709 11.1381 3.93328 11.5782 5.04103 11.5782C6.14878 11.5782 7.21116 11.1381 7.99446 10.3548C8.77775 9.57151 9.2178 8.50913 9.2178 7.40138ZM5.04103 9.00783C4.61497 9.00783 4.20637 8.83858 3.9051 8.53731C3.60383 8.23604 3.43458 7.82744 3.43458 7.40138C3.54034 6.18289 4.11655 5.05351 5.04103 4.25273C5.97102 5.04918 6.54847 6.18097 6.64748 7.40138C6.64748 7.82744 6.47823 8.23604 6.17696 8.53731C5.8757 8.83858 5.46709 9.00783 5.04103 9.00783ZM12.8291 10.5115C12.6166 10.3678 12.3659 10.2911 12.1094 10.2911C11.8529 10.2911 11.6023 10.3678 11.3897 10.5115C11.1712 10.6657 6.0049 14.2384 6.0049 19.6104C6.0049 21.2294 6.64806 22.7821 7.79287 23.927C8.93769 25.0718 10.4904 25.7149 12.1094 25.7149C13.7284 25.7149 15.2811 25.0718 16.426 23.927C17.5708 22.7821 18.2139 21.2294 18.2139 19.6104C18.2139 14.1485 13.0733 10.6528 12.8291 10.5115ZM12.1094 23.1446C11.6453 23.1446 11.1857 23.0532 10.7569 22.8756C10.3282 22.698 9.93855 22.4376 9.61037 22.1095C9.28219 21.7813 9.02186 21.3917 8.84425 20.9629C8.66664 20.5341 8.57522 20.0745 8.57522 19.6104C8.57522 16.6417 10.9014 14.2513 12.1223 13.1846C13.3303 14.1999 15.6436 16.5646 15.6436 19.6104C15.6436 20.0745 15.5522 20.5341 15.3746 20.9629C15.197 21.3917 14.9367 21.7813 14.6085 22.1095C14.2803 22.4376 13.8907 22.698 13.4619 22.8756C13.0331 23.0532 12.5735 23.1446 12.1094 23.1446ZM20.8614 0.23018C20.6488 0.0865303 20.3982 0.00976562 20.1417 0.00976562C19.8852 0.00976563 19.6345 0.0865303 19.422 0.23018C19.2421 0.358696 15.001 3.28886 15.001 7.72267C15.001 9.08605 15.5426 10.3936 16.5067 11.3577C17.4707 12.3217 18.7783 12.8633 20.1417 12.8633C21.5051 12.8633 22.8126 12.3217 23.7767 11.3577C24.7407 10.3936 25.2823 9.08605 25.2823 7.72267C25.2823 3.23746 21.0413 0.345845 20.8614 0.23018ZM20.1417 10.293C19.46 10.293 18.8062 10.0222 18.3242 9.54016C17.8422 9.05813 17.5714 8.40436 17.5714 7.72267C17.6594 6.79468 17.9322 5.89367 18.3736 5.07264C18.815 4.25162 19.4162 3.52716 20.1417 2.94187C20.8699 3.52466 21.4729 4.24851 21.9146 5.07003C22.3563 5.89154 22.6275 6.79379 22.712 7.72267C22.712 8.40436 22.4412 9.05813 21.9592 9.54016C21.4771 10.0222 20.8234 10.293 20.1417 10.293Z" fill="white"/>
</svg>
