<svg width="34" height="33" viewBox="0 0 34 33" fill="none" xmlns="http://www.w3.org/2000/svg">
<path d="M6.04913 14.0507C5.69124 14.0507 5.34801 13.9086 5.09494 13.6555C4.84188 13.4024 4.69971 13.0592 4.69971 12.7013C4.69971 12.3434 4.84188 12.0002 5.09494 11.7471C5.34801 11.4941 5.69124 11.3519 6.04913 11.3519H16.8445C17.5603 11.3519 18.2467 11.0675 18.7528 10.5614C19.259 10.0553 19.5433 9.36882 19.5433 8.65305C19.5433 7.93727 19.259 7.25081 18.7528 6.74468C18.2467 6.23855 17.5603 5.95421 16.8445 5.95421C16.1023 5.95421 15.4276 6.25108 14.9418 6.75037C14.819 6.88143 14.6706 6.98589 14.5058 7.05731C14.341 7.12873 14.1633 7.16558 13.9837 7.16558C13.8041 7.16558 13.6264 7.12873 13.4616 7.05731C13.2968 6.98589 13.1484 6.88143 13.0256 6.75037C12.4994 6.22409 12.4994 5.36047 13.0256 4.83419C14.0107 3.86261 15.3601 3.25537 16.8445 3.25537C18.276 3.25537 19.649 3.82405 20.6612 4.83631C21.6735 5.84857 22.2422 7.2215 22.2422 8.65305C22.2422 10.0846 21.6735 11.4575 20.6612 12.4698C19.649 13.482 18.276 14.0507 16.8445 14.0507H6.04913ZM26.2904 16.7496C26.6483 16.7496 26.9915 16.6074 27.2446 16.3543C27.4977 16.1013 27.6398 15.758 27.6398 15.4001C27.6398 15.0423 27.4977 14.699 27.2446 14.446C26.9915 14.1929 26.6483 14.0507 26.2904 14.0507C25.9126 14.0507 25.5752 14.1992 25.3323 14.4421C25.2075 14.5672 25.0592 14.6664 24.896 14.7341C24.7327 14.8018 24.5577 14.8367 24.381 14.8367C24.2043 14.8367 24.0293 14.8018 23.866 14.7341C23.7028 14.6664 23.5545 14.5672 23.4296 14.4421C22.9169 13.9158 22.9169 13.0656 23.4296 12.5394C24.1583 11.8107 25.1704 11.3519 26.2904 11.3519C27.3641 11.3519 28.3938 11.7784 29.153 12.5376C29.9122 13.2968 30.3387 14.3265 30.3387 15.4001C30.3387 16.4738 29.9122 17.5035 29.153 18.2627C28.3938 19.0219 27.3641 19.4484 26.2904 19.4484H7.39855C7.04066 19.4484 6.69743 19.3062 6.44436 19.0532C6.1913 18.8001 6.04913 18.4569 6.04913 18.099C6.04913 17.7411 6.1913 17.3979 6.44436 17.1448C6.69743 16.8917 7.04066 16.7496 7.39855 16.7496H26.2904ZM24.941 24.8461H6.04913C5.69124 24.8461 5.34801 24.7039 5.09494 24.4508C4.84188 24.1978 4.69971 23.8545 4.69971 23.4967C4.69971 23.1388 4.84188 22.7955 5.09494 22.5425C5.34801 22.2894 5.69124 22.1472 6.04913 22.1472H24.941C26.0147 22.1472 27.0444 22.5738 27.8035 23.3329C28.5627 24.0921 28.9893 25.1218 28.9893 26.1955C28.9893 27.2692 28.5627 28.2989 27.8035 29.058C27.0444 29.8172 26.0147 30.2438 24.941 30.2438C23.821 30.2438 22.8089 29.785 22.0802 29.0563C21.5674 28.53 21.5674 27.6799 22.0802 27.1536C22.2051 27.0285 22.3534 26.9292 22.5166 26.8615C22.6798 26.7938 22.8548 26.759 23.0316 26.759C23.2083 26.759 23.3833 26.7938 23.5465 26.8615C23.7098 26.9292 23.8581 27.0285 23.9829 27.1536C24.2258 27.3965 24.5632 27.5449 24.941 27.5449C25.2989 27.5449 25.6421 27.4027 25.8952 27.1497C26.1482 26.8966 26.2904 26.5534 26.2904 26.1955C26.2904 25.8376 26.1482 25.4944 25.8952 25.2413C25.6421 24.9882 25.2989 24.8461 24.941 24.8461Z" fill="black"/>
</svg>
