<svg width="27" height="27" viewBox="0 0 27 27" fill="none" xmlns="http://www.w3.org/2000/svg">
<path d="M8.43382 18.5475L9.75968 22.6664L13.8786 21.3406" stroke="white" stroke-width="1.81132" stroke-linecap="round" stroke-linejoin="round"/>
<path d="M5.85255 3.46845C4.82439 4.80742 4.58115 6.69604 5.11895 8.25029C5.5888 9.82641 6.88808 11.2185 8.50426 11.7063C10.1204 12.194 11.4197 13.5861 11.8896 15.1623C12.4274 16.7165 11.8542 18.5829 11.156 19.9441L9.75944 22.6665" stroke="white" stroke-width="1.81132" stroke-linecap="round" stroke-linejoin="round"/>
<path d="M17.0881 18.5475L18.414 22.6664L22.5329 21.3406" stroke="white" stroke-width="1.81132" stroke-linecap="round" stroke-linejoin="round"/>
<path d="M14.5068 3.46845C13.4787 4.80742 13.2354 6.69604 13.7732 8.25029C14.2431 9.82641 15.5424 11.2185 17.1586 11.7063C18.7747 12.194 20.074 13.5861 20.5439 15.1623C21.0817 16.7165 20.5085 18.5829 19.8103 19.9441L18.4137 22.6665" stroke="white" stroke-width="1.81132" stroke-linecap="round" stroke-linejoin="round"/>
</svg>
