<svg width="27" height="28" viewBox="0 0 27 28" fill="none" xmlns="http://www.w3.org/2000/svg">
<path d="M2.04961 11.0512C1.69173 11.0512 1.3485 10.909 1.09543 10.656C0.842366 10.4029 0.700195 10.0597 0.700195 9.70179C0.700195 9.34391 0.842366 9.00068 1.09543 8.74761C1.3485 8.49455 1.69173 8.35238 2.04961 8.35238H12.845C13.5607 8.35238 14.2472 8.06803 14.7533 7.5619C15.2595 7.05577 15.5438 6.36931 15.5438 5.65354C15.5438 4.93776 15.2595 4.2513 14.7533 3.74517C14.2472 3.23904 13.5607 2.9547 12.845 2.9547C12.1028 2.9547 11.4281 3.25157 10.9423 3.75086C10.8195 3.88191 10.6711 3.98638 10.5063 4.0578C10.3415 4.12922 10.1638 4.16607 9.9842 4.16607C9.80459 4.16607 9.6269 4.12922 9.4621 4.0578C9.29731 3.98638 9.14892 3.88191 9.02611 3.75086C8.49984 3.22458 8.49984 2.36095 9.02611 1.83468C10.0112 0.863098 11.3606 0.255859 12.845 0.255859C14.2765 0.255859 15.6494 0.824542 16.6617 1.8368C17.674 2.84906 18.2426 4.22198 18.2426 5.65354C18.2426 7.08509 17.674 8.45801 16.6617 9.47027C15.6494 10.4825 14.2765 11.0512 12.845 11.0512H2.04961ZM22.2909 13.7501C22.6488 13.7501 22.992 13.6079 23.2451 13.3548C23.4982 13.1018 23.6403 12.7585 23.6403 12.4006C23.6403 12.0427 23.4982 11.6995 23.2451 11.4464C22.992 11.1934 22.6488 11.0512 22.2909 11.0512C21.9131 11.0512 21.5757 11.1996 21.3328 11.4425C21.208 11.5676 21.0597 11.6669 20.8964 11.7346C20.7332 11.8023 20.5582 11.8372 20.3815 11.8372C20.2047 11.8372 20.0297 11.8023 19.8665 11.7346C19.7033 11.6669 19.555 11.5676 19.4301 11.4425C18.9174 10.9163 18.9174 10.0661 19.4301 9.53986C20.1588 8.81118 21.1709 8.35238 22.2909 8.35238C23.3646 8.35238 24.3943 8.77889 25.1535 9.53808C25.9126 10.2973 26.3392 11.327 26.3392 12.4006C26.3392 13.4743 25.9126 14.504 25.1535 15.2632C24.3943 16.0224 23.3646 16.4489 22.2909 16.4489H3.39903C3.04115 16.4489 2.69792 16.3067 2.44485 16.0537C2.19179 15.8006 2.04961 15.4574 2.04961 15.0995C2.04961 14.7416 2.19179 14.3984 2.44485 14.1453C2.69792 13.8922 3.04115 13.7501 3.39903 13.7501H22.2909ZM20.9415 21.8466H2.04961C1.69173 21.8466 1.3485 21.7044 1.09543 21.4513C0.842366 21.1983 0.700195 20.855 0.700195 20.4971C0.700195 20.1393 0.842366 19.796 1.09543 19.543C1.3485 19.2899 1.69173 19.1477 2.04961 19.1477H20.9415C22.0151 19.1477 23.0448 19.5742 23.804 20.3334C24.5632 21.0926 24.9897 22.1223 24.9897 23.196C24.9897 24.2697 24.5632 25.2993 23.804 26.0585C23.0448 26.8177 22.0151 27.2442 20.9415 27.2442C19.8215 27.2442 18.8094 26.7854 18.0807 26.0568C17.5679 25.5305 17.5679 24.6803 18.0807 24.1541C18.2056 24.029 18.3538 23.9297 18.5171 23.862C18.6803 23.7943 18.8553 23.7594 19.0321 23.7594C19.2088 23.7594 19.3838 23.7943 19.547 23.862C19.7103 23.9297 19.8586 24.029 19.9834 24.1541C20.2263 24.397 20.5636 24.5454 20.9415 24.5454C21.2994 24.5454 21.6426 24.4032 21.8957 24.1502C22.1487 23.8971 22.2909 23.5539 22.2909 23.196C22.2909 22.8381 22.1487 22.4949 21.8957 22.2418C21.6426 21.9887 21.2994 21.8466 20.9415 21.8466Z" fill="white"/>
</svg>
