<svg width="34" height="34" viewBox="0 0 34 34" fill="none" xmlns="http://www.w3.org/2000/svg">
<path d="M10.724 23.6513L12.4173 28.9117L17.6777 27.2184" stroke="black" stroke-width="2.31329" stroke-linecap="round" stroke-linejoin="round"/>
<path d="M7.42752 4.39299C6.11442 6.10302 5.80377 8.51503 6.49061 10.5C7.09067 12.5129 8.75002 14.2908 10.8141 14.9137C12.8782 15.5367 14.5375 17.3146 15.1376 19.3275C15.8244 21.3125 15.0924 23.6961 14.2007 25.4345L12.4171 28.9113" stroke="black" stroke-width="2.31329" stroke-linecap="round" stroke-linejoin="round"/>
<path d="M21.7762 23.6513L23.4695 28.9117L28.7299 27.2184" stroke="black" stroke-width="2.31329" stroke-linecap="round" stroke-linejoin="round"/>
<path d="M18.4798 4.39299C17.1667 6.10302 16.856 8.51503 17.5429 10.5C18.1429 12.5129 19.8023 14.2908 21.8663 14.9137C23.9304 15.5367 25.5898 17.3146 26.1898 19.3275C26.8767 21.3125 26.1447 23.6961 25.2529 25.4345L23.4694 28.9113" stroke="black" stroke-width="2.31329" stroke-linecap="round" stroke-linejoin="round"/>
</svg>
